SplineFontDB: 3.2
FontName: InconsolataLGC
FullName: Inconsolata LGC
FamilyName: Inconsolata LGC
Weight: Regular
Copyright: Original Roman version created by Raph Levien using his own tools and FontForge. Copyright 2006 Raph Levien. Hellenisation of the Roman font, by Dimosthenis Kaponis, using FontForge. Hellenic glyphs Copyright 2010-2012 Dimosthenis Kaponis. Released under the SIL Open Font License, http://scripts.sil.org/OFL.\n\nCyrillic glyphs added by MihailJP, using FontForge. Cyrillic glyphs Copyright 2012 MihailJP. Released under the SIL Open Font License, http://scripts.sil.org/OFL.\n\nSome glyphs modified by Greg Omelaenko, using FontForge.
UComments: "2005-8-26: Created."
Version: 2.001
ItalicAngle: 0
UnderlinePosition: -101
UnderlineWidth: 50
Ascent: 840
Descent: 184
InvalidEm: 0
LayerCount: 2
Layer: 0 0 "Back" 1
Layer: 1 0 "Fore" 0
XUID: [1021 77 1780377399 11264577]
FSType: 0
OS2Version: 0
OS2_WeightWidthSlopeOnly: 0
OS2_UseTypoMetrics: 1
CreationTime: 1161020814
ModificationTime: 1774102886
PfmFamily: 49
TTFWeight: 400
TTFWidth: 5
LineGap: 0
VLineGap: 0
Panose: 2 11 6 9 3 0 3 0 0 0
OS2TypoAscent: 939
OS2TypoAOffset: 0
OS2TypoDescent: -198
OS2TypoDOffset: 0
OS2TypoLinegap: 0
OS2WinAscent: 1128
OS2WinAOffset: 0
OS2WinDescent: 283
OS2WinDOffset: 0
HheadAscent: 939
HheadAOffset: 0
HheadDescent: -198
HheadDOffset: 0
OS2CapHeight: 740
OS2XHeight: 543
OS2FamilyClass: 2048
OS2Vendor: 'PfEd'
Lookup: 1 0 0 "Initial forms" { "Initial forms-1"  } ['init' ('DFLT' <'dflt' > 'arab' <'dflt' > ) ]
Lookup: 1 0 0 "Medial forms" { "Medial forms-1"  } ['medi' ('DFLT' <'dflt' > 'arab' <'dflt' > ) ]
Lookup: 1 0 0 "Final forms" { "Final forms-1"  } ['fina' ('DFLT' <'dflt' > 'arab' <'dflt' > ) ]
Lookup: 1 0 0 "Isolated forms" { "Isolated forms-1"  } ['isol' ('DFLT' <'dflt' > 'arab' <'dflt' > ) ]
Lookup: 4 8 1 "Lam-Alef ligature" { "Lam-Alef ligature-1"  } ['rlig' ('DFLT' <'dflt' > 'arab' <'dflt' > ) ]

StartChar: comma
Encoding: 44 44 0
Width: 613
Flags: MW
TeX: 101 0
LayerCount: 2
Fore
SplineSet
373 23 m 0
 373 -39 330 -116 247 -200 c 0
 206 -164 l 0
 234 -138 253 -109 265 -90 c 0
 271 -80 283 -61 283 -41 c 0
 283 -17 265 -5 255 2 c 0
 245 9 222 22 222 54 c 0
 222 90 251 122 290 122 c 0
 332 122 373 84 373 23 c 0
EndSplineSet
Validated: 1
EndChar

StartChar: semicolon
Encoding: 59 59 1
Width: 613
Flags: MW
TeX: 118 0
LayerCount: 2
Fore
SplineSet
364 434 m 0
 364 397 332 366 293 366 c 0
 254 366 223 397 223 434 c 0
 223 471 254 502 293 502 c 0
 332 502 364 471 364 434 c 0
EndSplineSet
Refer: 0 44 N 1 0 0 1 0 0 2
Validated: 1
EndChar

StartChar: substitutetwo
Encoding: 9254 9254 2
Width: 613
Flags: MW
TeX: 116 0
LayerCount: 2
Fore
SplineSet
223 53 m 0
 223 90 255 121 294 121 c 0
 333 121 363 90 363 53 c 0
 363 16 333 -15 294 -15 c 0
 255 -15 223 16 223 53 c 0
87 580 m 0
 87 691 164 790 298 790 c 0
 387 790 475 746 527 666 c 0
 467 609 l 0
 430 672 366 712 306 712 c 0
 235 712 181 656 181 586 c 0
 181 508 243 460 279 421 c 0
 331 363 334 321 334 268 c 0
 334 219 l 0
 257 219 l 0
 257 268 l 0
 257 310 254 346 205 389 c 0
 166 424 87 469 87 580 c 0
EndSplineSet
EndChar

StartChar: uniFE80
Encoding: 65152 65152 3
Width: 613
Flags: W
LayerCount: 2
Fore
SplineSet
39 -198 m 0
 40 -61 62 89 62 240 c 0
 62 542 l 0
 140 542 l 0
 140 220 l 0
 140 184 142 151 158 118 c 0
 180 75 217 51 255 51 c 0
 298 51 340 81 360 129 c 0
 373 160 376 190 376 227 c 0
 376 542 l 0
 452 542 l 0
 452 137 l 0
 452 119 452 97 462 80 c 0
 470 64 485 56 499 56 c 0
 540 56 564 114 564 114 c 0
 596 53 l 0
 573 18 536 -12 492 -12 c 0
 442 -12 400 29 394 80 c 0
 366 24 310 -13 249 -13 c 0
 192 -13 139 20 114 72 c 0
 114 -18 114 -109 113 -198 c 0
 39 -198 l 0
EndSplineSet
EndChar

StartChar: uniFE8D
Encoding: 65165 65165 16
Width: 613
Flags: W
LayerCount: 2
Fore
SplineSet
264 0 m 0
 264 600 l 0
 362 600 l 0
 362 599 364 598 364 597 c 0
 364 591 359 587 356 584 c 0
 352 580 351 577 351 573 c 0
 351 0 l 0
 264 0 l 0
EndSplineSet
Colour: ffff
EndChar

StartChar: uniFE8E
Encoding: 65166 65166 17
Width: 613
Flags: W
LayerCount: 2
Fore
SplineSet
264 253 m 2
 264 600 l 1
 362 600 l 0
 362 599 364 598 364 597 c 0
 364 591 359 587 356 584 c 0
 352 580 351 577 351 573 c 1
 351 253 l 2
 351 223 351 174 370 136 c 0
 392 93 431 69 474 69 c 2
 613 69 l 1
 613 0 l 25
 454 0 l 2
 383 0 317 38 285 110 c 0
 264 157 264 214 264 253 c 2
EndSplineSet
Colour: ffff
EndChar

StartChar: uniFEA1
Encoding: 65185 65185 36
Width: 613
Flags: W
LayerCount: 2
Fore
SplineSet
59 319 m 1
 87 321 167 325 193 325 c 0
 321 325 422 306 491 278 c 1
 480 217 l 1
 400 233 267 181 197 130 c 0
 163 105 144 51 144 0 c 0
 144 -118 232 -142 300 -142 c 0
 348 -142 394 -133 430 -119 c 0
 459 -107 480 -92 494 -76 c 1
 549 -116 l 1
 526 -143 494 -163 457 -178 c 0
 411 -196 357 -206 300 -206 c 0
 160 -206 66 -130 66 0 c 0
 66 98 93 203 314 254 c 1
 278 259 237 261 193 261 c 0
 169 261 91 257 65 255 c 1
 59 319 l 1
EndSplineSet
Colour: ffff
EndChar

StartChar: uniFEA2
Encoding: 65186 65186 37
Width: 613
Flags: W
LayerCount: 2
Fore
SplineSet
54 311 m 1
 107 322 146 324 200 324 c 0
 230 324 260 319 292 310 c 0
 306 306 413 274 488 214 c 0
 506 200 521 185 531 168 c 1
 494 120 l 1
 488 120 482 119 476 119 c 1
 499 87 532 69 569 69 c 2
 613 69 l 1
 613 0 l 1
 549 0 l 2
 478 0 412 38 380 109 c 1
 234 86 148 29 148 -92 c 0
 148 -210 236 -234 304 -234 c 0
 352 -234 398 -225 434 -211 c 0
 463 -199 484 -184 498 -168 c 1
 553 -208 l 1
 530 -235 498 -255 461 -270 c 0
 415 -288 361 -298 304 -298 c 0
 164 -298 70 -222 70 -92 c 0
 70 25 130 152 403 182 c 1
 337 224 245 256 200 256 c 0
 136 256 115 252 68 243 c 1
 54 311 l 1
EndSplineSet
Colour: ffff
EndChar

StartChar: uniFEA3
Encoding: 65187 65187 38
Width: 613
Flags: W
LayerCount: 2
Fore
SplineSet
0 0 m 1
 0 69 l 1
 61 69 l 2
 194 69 280 81 387 101 c 1
 279 154 203 221 54 257 c 1
 71 325 l 1
 180 298 239 289 334 222 c 0
 408 170 468 131 548 130 c 1
 548 62 l 1
 533 59 519 55 505 53 c 0
 348 21 240 0 61 0 c 2
 0 0 l 1
EndSplineSet
Colour: ffff
EndChar

StartChar: uniFEA4
Encoding: 65188 65188 39
Width: 613
Flags: W
LayerCount: 2
Fore
SplineSet
0 0 m 1
 0 69 l 1
 61 69 l 2
 194 69 280 81 387 101 c 1
 279 154 203 221 54 257 c 1
 71 325 l 1
 180 298 239 289 334 222 c 0
 408 170 468 131 548 130 c 1
 548 71 l 1
 555 70 562 69 569 69 c 2
 613 69 l 1
 613 0 l 1
 549 0 l 2
 507 0 467 13 435 39 c 1
 313 15 212 0 61 0 c 2
 0 0 l 1
EndSplineSet
Colour: ffff
EndChar

StartChar: uniFEA9
Encoding: 65193 65193 44
Width: 613
Flags: W
LayerCount: 2
Fore
SplineSet
154 16 m 1
 196 90 l 1
 203 86 204 80 208 77 c 0
 211 75 233 61 261 61 c 0
 295 61 325 80 340 114 c 0
 353 142 354 167 354 202 c 0
 354 252 288 315 288 315 c 5
 372 325 l 1
 372 325 438 266 438 200 c 0
 438 159 436 126 417 85 c 0
 388 23 328 -12 259 -12 c 0
 222 -12 186 -3 154 16 c 1
EndSplineSet
Colour: ffff
EndChar

StartChar: uniFEAA
Encoding: 65194 65194 45
Width: 613
Flags: W
LayerCount: 2
Fore
SplineSet
154 16 m 1
 196 90 l 1
 203 86 204 80 208 77 c 0
 211 75 233 61 261 61 c 0
 295 61 325 80 340 114 c 0
 353 142 354 167 354 202 c 0
 354 252 288 315 288 315 c 1
 372 325 l 1
 372 325 438 266 438 200 c 0
 440 174 447 158 458 136 c 0
 480 93 519 69 562 69 c 2
 613 69 l 1
 613 0 l 1
 542 0 l 2
 489 0 439 22 404 62 c 1
 372 15 319 -12 259 -12 c 0
 222 -12 186 -3 154 16 c 1
EndSplineSet
Colour: ffff
EndChar

StartChar: uniFEAD
Encoding: 65197 65197 48
Width: 613
Flags: W
LayerCount: 2
Fore
SplineSet
65 -121 m 1
 114 -64 l 1
 151 -106 232 -131 293 -131 c 3
 399 -131 460 -41 460 71 c 3
 460 136 440 229 367 315 c 1
 454 335 l 1
 528 239 548 177 548 64 c 3
 548 -80 472 -207 292 -207 c 3
 199 -207 117 -177 65 -121 c 1
EndSplineSet
Colour: ffff
EndChar

StartChar: uniFEAE
Encoding: 65198 65198 49
Width: 613
Flags: W
LayerCount: 2
Fore
SplineSet
65 -121 m 1
 114 -64 l 1
 151 -106 232 -131 293 -131 c 0
 399 -131 460 -41 460 71 c 0
 460 136 440 229 367 315 c 1
 454 335 l 1
 514 257 539 202 546 124 c 8
 548 101 559 69 569 69 c 2
 613 69 l 1
 613 0 l 1
 549 0 l 2
 547 0 545 0 543 0 c 0
 523 -116 445 -207 292 -207 c 0
 199 -207 117 -177 65 -121 c 1
EndSplineSet
Colour: ffff
EndChar

StartChar: uniFEB1
Encoding: 65201 65201 52
Width: 613
VWidth: 1046
Flags: W
LayerCount: 2
Fore
SplineSet
47 47 m 2
 47 132 l 1
 126 132 l 1
 126 132 l 2
 126 131 127 130 127 129 c 0
 127 119 119 116 119 105 c 2
 119 47 l 2
 119 -21 122 -107 148 -130 c 0
 156 -137 163 -136 169 -136 c 3
 186 -136 222 -108 234 -70 c 0
 245 -32 249 10 249 47 c 2
 249 325 l 1
 318 325 l 1
 318 156 l 2
 318 148 317 138 317 129 c 2
 317 118 l 2
 317 107 318 50 338 50 c 3
 352 50 362 85 366 97 c 0
 377 130 379 153 379 182 c 2
 379 325 l 1
 447 325 l 1
 447 138 l 2
 447 119 447 54 470 54 c 3
 480 54 491 74 499 101 c 0
 508 130 510 153 510 179 c 2
 510 325 l 1
 577 325 l 1
 577 179 l 3
 577 47 529 -15 471 -15 c 3
 456 -15 435 -15 410 13 c 0
 404 19 399 26 395 34 c 1
 392 28 370 -15 334 -15 c 2
 317 -15 l 1
 313 -101 289 -146 264 -172 c 0
 232 -206 200 -206 181 -206 c 0
 141 -206 112 -206 89 -185 c 0
 62 -161 47 -118 47 47 c 2
EndSplineSet
Substitution2: "Forms before tail fragment-1" uniFEB1.alt
Colour: ffff
EndChar

StartChar: uniFEB2
Encoding: 65202 65202 53
Width: 613
VWidth: 1046
Flags: W
LayerCount: 2
Fore
SplineSet
47 47 m 2
 47 132 l 1
 126 132 l 1
 126 131 127 130 127 129 c 0
 127 119 119 116 119 105 c 2
 119 47 l 2
 119 -21 122 -107 148 -130 c 0
 156 -137 163 -136 169 -136 c 0
 186 -136 222 -108 234 -70 c 0
 245 -32 249 10 249 47 c 2
 249 325 l 1
 318 325 l 1
 318 156 l 2
 318 148 317 138 317 129 c 2
 317 118 l 2
 317 107 318 50 338 50 c 0
 352 50 362 85 366 97 c 0
 377 130 379 153 379 182 c 2
 379 325 l 1
 447 325 l 1
 447 138 l 2
 447 119 447 54 470 54 c 0
 480 54 491 74 499 101 c 0
 508 130 510 153 510 179 c 2
 510 325 l 1
 577 325 l 1
 577 141 l 2
 577 124 578 95 583 85 c 0
 591 69 600 62 610 62 c 2
 613 62 l 1
 613 0 l 1
 593 0 l 2
 572 0 553 0 536 19 c 1
 518 -4 495 -15 471 -15 c 0
 456 -15 435 -15 410 13 c 0
 404 19 399 26 395 34 c 1
 392 28 370 -15 334 -15 c 2
 317 -15 l 1
 313 -101 289 -146 264 -172 c 0
 232 -206 200 -206 181 -206 c 0
 141 -206 112 -206 89 -185 c 0
 62 -161 47 -118 47 47 c 2
EndSplineSet
Substitution2: "Forms before tail fragment-1" uniFEB2.alt
Colour: ffff
EndChar

StartChar: uniFEB3
Encoding: 65203 65203 54
Width: 613
VWidth: 1046
Flags: W
LayerCount: 2
Fore
SplineSet
0 0 m 1
 0 62 l 1
 23 62 37 73 46 92 c 0
 53 107 54 124 54 141 c 2
 54 325 l 1
 135 325 l 1
 135 156 l 2
 135 147 134 136 134 126 c 0
 134 109 136 92 142 77 c 0
 151 58 168 47 185 47 c 0
 218 47 239 82 248 97 c 0
 267 130 271 153 271 182 c 2
 271 325 l 1
 351 325 l 1
 351 138 l 2
 351 116 351 51 406 51 c 0
 428 51 452 65 471 101 c 0
 486 130 489 153 489 179 c 2
 489 325 l 1
 567 325 l 1
 567 179 l 18
 567 30 461 -15 407 -15 c 0
 358 -15 290 19 282 64 c 1
 260 16 212 -15 160 -15 c 0
 134 -15 105 -7 85 16 c 1
 67 4 47 0 28 0 c 2
 0 0 l 1
EndSplineSet
Colour: ffff
EndChar

StartChar: uniFEB4
Encoding: 65204 65204 55
Width: 613
VWidth: 1046
Flags: W
LayerCount: 2
Fore
SplineSet
0 0 m 1
 0 62 l 1
 23 62 37 73 46 92 c 0
 53 107 54 124 54 141 c 2
 54 325 l 1
 135 325 l 1
 135 156 l 2
 135 147 134 136 134 126 c 0
 134 109 136 92 142 77 c 0
 151 58 168 47 185 47 c 0
 218 47 239 82 248 97 c 0
 267 130 271 153 271 182 c 2
 271 325 l 1
 351 325 l 1
 351 138 l 2
 351 116 351 51 406 51 c 0
 428 51 452 65 471 101 c 0
 486 130 489 153 489 179 c 2
 489 325 l 1
 567 325 l 1
 567 141 l 2
 567 124 569 107 575 92 c 0
 584 73 596 62 613 62 c 1
 613 0 l 1
 593 0 l 2
 563 0 531 12 509 43 c 0
 505 49 501 57 498 66 c 1
 474 28 435 -15 378 -15 c 0
 329 -15 290 19 282 64 c 1
 260 16 212 -15 160 -15 c 0
 134 -15 105 -7 85 16 c 1
 67 4 47 0 28 0 c 2
 0 0 l 1
EndSplineSet
Colour: ffff
EndChar

StartChar: uniFEB9
Encoding: 65209 65209 60
Width: 613
Flags: W
LayerCount: 2
Fore
SplineSet
39 -198 m 0
 40 -61 62 89 62 240 c 0
 62 542 l 0
 140 542 l 0
 140 220 l 0
 140 184 142 151 158 118 c 0
 180 75 217 51 255 51 c 0
 298 51 340 81 360 129 c 0
 373 160 376 190 376 227 c 0
 376 542 l 0
 452 542 l 0
 452 137 l 0
 452 119 452 97 462 80 c 0
 470 64 485 56 499 56 c 0
 540 56 564 114 564 114 c 0
 596 53 l 0
 573 18 536 -12 492 -12 c 0
 442 -12 400 29 394 80 c 0
 366 24 310 -13 249 -13 c 0
 192 -13 139 20 114 72 c 0
 114 -18 114 -109 113 -198 c 0
 39 -198 l 0
EndSplineSet
Substitution2: "Forms before tail fragment-1" uniFEB9.alt
EndChar

StartChar: uniFEBA
Encoding: 65210 65210 61
Width: 613
Flags: W
LayerCount: 2
Fore
SplineSet
39 -198 m 0
 40 -61 62 89 62 240 c 0
 62 542 l 0
 140 542 l 0
 140 220 l 0
 140 184 142 151 158 118 c 0
 180 75 217 51 255 51 c 0
 298 51 340 81 360 129 c 0
 373 160 376 190 376 227 c 0
 376 542 l 0
 452 542 l 0
 452 137 l 0
 452 119 452 97 462 80 c 0
 470 64 485 56 499 56 c 0
 540 56 564 114 564 114 c 0
 596 53 l 0
 573 18 536 -12 492 -12 c 0
 442 -12 400 29 394 80 c 0
 366 24 310 -13 249 -13 c 0
 192 -13 139 20 114 72 c 0
 114 -18 114 -109 113 -198 c 0
 39 -198 l 0
EndSplineSet
EndChar

StartChar: uniFEBB
Encoding: 65211 65211 62
Width: 613
Flags: W
LayerCount: 2
Fore
SplineSet
76 112 m 17
 124 198 251 290 373 290 c 27
 484 290 541 250 541 139 c 3
 541 71.5978345748 437 35 343 35 c 27
 212 35 58 82 58 178 c 1
 58 50 48 35 19 35 c 8
 12 35 7 35 0 35 c 1049
EndSplineSet
EndChar

StartChar: uniFEBC
Encoding: 65212 65212 63
Width: 613
Flags: W
LayerCount: 2
Fore
SplineSet
39 -198 m 0
 40 -61 62 89 62 240 c 0
 62 542 l 0
 140 542 l 0
 140 220 l 0
 140 184 142 151 158 118 c 0
 180 75 217 51 255 51 c 0
 298 51 340 81 360 129 c 0
 373 160 376 190 376 227 c 0
 376 542 l 0
 452 542 l 0
 452 137 l 0
 452 119 452 97 462 80 c 0
 470 64 485 56 499 56 c 0
 540 56 564 114 564 114 c 0
 596 53 l 0
 573 18 536 -12 492 -12 c 0
 442 -12 400 29 394 80 c 0
 366 24 310 -13 249 -13 c 0
 192 -13 139 20 114 72 c 0
 114 -18 114 -109 113 -198 c 0
 39 -198 l 0
EndSplineSet
Substitution2: "Forms before tail fragment-1" uniFEBC.alt
EndChar

StartChar: uniFEBD
Encoding: 65213 65213 64
Width: 613
Flags: W
LayerCount: 2
Fore
SplineSet
39 -198 m 0
 40 -61 62 89 62 240 c 0
 62 542 l 0
 140 542 l 0
 140 220 l 0
 140 184 142 151 158 118 c 0
 180 75 217 51 255 51 c 0
 298 51 340 81 360 129 c 0
 373 160 376 190 376 227 c 0
 376 542 l 0
 452 542 l 0
 452 137 l 0
 452 119 452 97 462 80 c 0
 470 64 485 56 499 56 c 0
 540 56 564 114 564 114 c 0
 596 53 l 0
 573 18 536 -12 492 -12 c 0
 442 -12 400 29 394 80 c 0
 366 24 310 -13 249 -13 c 0
 192 -13 139 20 114 72 c 0
 114 -18 114 -109 113 -198 c 0
 39 -198 l 0
EndSplineSet
Substitution2: "Forms before tail fragment-1" uniFEBD.alt
EndChar

StartChar: uniFEBE
Encoding: 65214 65214 65
Width: 613
Flags: W
LayerCount: 2
Fore
SplineSet
39 -198 m 0
 40 -61 62 89 62 240 c 0
 62 542 l 0
 140 542 l 0
 140 220 l 0
 140 184 142 151 158 118 c 0
 180 75 217 51 255 51 c 0
 298 51 340 81 360 129 c 0
 373 160 376 190 376 227 c 0
 376 542 l 0
 452 542 l 0
 452 137 l 0
 452 119 452 97 462 80 c 0
 470 64 485 56 499 56 c 0
 540 56 564 114 564 114 c 0
 596 53 l 0
 573 18 536 -12 492 -12 c 0
 442 -12 400 29 394 80 c 0
 366 24 310 -13 249 -13 c 0
 192 -13 139 20 114 72 c 0
 114 -18 114 -109 113 -198 c 0
 39 -198 l 0
EndSplineSet
Substitution2: "Forms before tail fragment-1" uniFEBE.alt
EndChar

StartChar: uniFEBF
Encoding: 65215 65215 66
Width: 613
Flags: W
LayerCount: 2
Fore
SplineSet
39 -198 m 0
 40 -61 62 89 62 240 c 0
 62 542 l 0
 140 542 l 0
 140 220 l 0
 140 184 142 151 158 118 c 0
 180 75 217 51 255 51 c 0
 298 51 340 81 360 129 c 0
 373 160 376 190 376 227 c 0
 376 542 l 0
 452 542 l 0
 452 137 l 0
 452 119 452 97 462 80 c 0
 470 64 485 56 499 56 c 0
 540 56 564 114 564 114 c 0
 596 53 l 0
 573 18 536 -12 492 -12 c 0
 442 -12 400 29 394 80 c 0
 366 24 310 -13 249 -13 c 0
 192 -13 139 20 114 72 c 0
 114 -18 114 -109 113 -198 c 0
 39 -198 l 0
EndSplineSet
EndChar

StartChar: uniFEC0
Encoding: 65216 65216 67
Width: 613
Flags: W
LayerCount: 2
Fore
SplineSet
39 -198 m 0
 40 -61 62 89 62 240 c 0
 62 542 l 0
 140 542 l 0
 140 220 l 0
 140 184 142 151 158 118 c 0
 180 75 217 51 255 51 c 0
 298 51 340 81 360 129 c 0
 373 160 376 190 376 227 c 0
 376 542 l 0
 452 542 l 0
 452 137 l 0
 452 119 452 97 462 80 c 0
 470 64 485 56 499 56 c 0
 540 56 564 114 564 114 c 0
 596 53 l 0
 573 18 536 -12 492 -12 c 0
 442 -12 400 29 394 80 c 0
 366 24 310 -13 249 -13 c 0
 192 -13 139 20 114 72 c 0
 114 -18 114 -109 113 -198 c 0
 39 -198 l 0
EndSplineSet
EndChar

StartChar: uniFEC1
Encoding: 65217 65217 68
Width: 613
Flags: W
LayerCount: 2
Fore
SplineSet
65 0 m 1
 65 69 l 1
 160 69 l 1
 160 600 l 1
 258 600 l 1
 258 599 260 598 260 597 c 0
 260 591 255 587 252 584 c 0
 248 580 247 577 247 573 c 2
 247 278 l 1
 285 306 325 325 362 325 c 0
 432 325 550 300 550 139 c 0
 550 58 470 0 343 0 c 2
 65 0 l 1
247 69 m 1
 343 69 l 2
 376 69 462 76 462 139 c 0
 462 184 452 212 438 228 c 0
 430 238 412 256 362 256 c 0
 344 256 297 230 247 172 c 1
 247 69 l 1
EndSplineSet
Colour: ffff
EndChar

StartChar: uniFEC2
Encoding: 65218 65218 69
Width: 613
Flags: W
LayerCount: 2
Fore
SplineSet
247 69 m 1
 343 69 l 2
 376 69 462 76 462 139 c 0
 462 184 452 212 438 228 c 0
 430 238 412 256 362 256 c 0
 344 256 297 230 247 172 c 1
 247 69 l 1
65 0 m 1
 65 69 l 1
 160 69 l 1
 160 600 l 1
 258 600 l 1
 258 599 260 598 260 597 c 0
 260 591 255 587 252 584 c 0
 248 580 247 577 247 573 c 2
 247 278 l 1
 285 306 325 325 362 325 c 0
 432 325 550 300 550 139 c 0
 550 78 563 69 606 69 c 2
 613 69 l 1
 613 0 l 1
 586 0 l 2
 538 0 505 7 485 33 c 1
 450 12 401 0 343 0 c 2
 65 0 l 1
EndSplineSet
Colour: ffff
EndChar

StartChar: uniFEC3
Encoding: 65219 65219 70
Width: 613
Flags: W
LayerCount: 2
Fore
SplineSet
0 0 m 1
 0 69 l 1
 160 69 l 1
 160 600 l 1
 258 600 l 1
 258 599 260 598 260 597 c 0
 260 591 255 587 252 584 c 0
 248 580 247 577 247 573 c 2
 247 278 l 1
 285 306 325 325 362 325 c 0
 432 325 550 300 550 139 c 0
 550 58 470 0 343 0 c 2
 0 0 l 1
247 69 m 1
 343 69 l 2
 376 69 462 76 462 139 c 0
 462 184 452 212 438 228 c 0
 430 238 412 256 362 256 c 0
 344 256 297 230 247 172 c 1
 247 69 l 1
EndSplineSet
Colour: ffff
EndChar

StartChar: uniFEC4
Encoding: 65220 65220 71
Width: 613
Flags: W
LayerCount: 2
Fore
SplineSet
247 69 m 1
 343 69 l 2
 376 69 462 76 462 139 c 0
 462 184 452 212 438 228 c 0
 430 238 412 256 362 256 c 0
 344 256 297 230 247 172 c 1
 247 69 l 1
0 0 m 1
 0 69 l 1
 160 69 l 1
 160 600 l 1
 258 600 l 1
 258 599 260 598 260 597 c 0
 260 591 255 587 252 584 c 0
 248 580 247 577 247 573 c 2
 247 278 l 1
 285 306 325 325 362 325 c 0
 432 325 550 300 550 139 c 0
 550 78 563 69 606 69 c 2
 613 69 l 1
 613 0 l 1
 586 0 l 2
 538 0 505 7 485 33 c 1
 450 12 401 0 343 0 c 2
 0 0 l 1
EndSplineSet
Colour: ffff
EndChar

StartChar: uniFEC9
Encoding: 65225 65225 76
Width: 613
Flags: W
LayerCount: 2
Fore
SplineSet
66 0 m 0
 66 77 135 199 251 272 c 1
 213 282 179 300 159 332 c 0
 148 350 142 370 142 393 c 0
 142 492 233 554 330 554 c 0
 410 554 436 534 485 495 c 1
 437 435 l 1
 394 469 387 474 374 479 c 0
 365 482 354 485 330 485 c 0
 273 485 228 448 228 393 c 0
 228 360 247 350 263 343 c 0
 281 335 310 330 344 330 c 0
 381 330 423 345 487 358 c 1
 501 289 l 1
 486 286 473 284 460 281 c 0
 376 259 265 208 224 167 c 0
 194 137 144 51 144 0 c 0
 144 -118 232 -142 300 -142 c 0
 348 -142 394 -133 430 -119 c 0
 459 -107 480 -92 494 -76 c 1
 549 -116 l 1
 526 -143 494 -163 457 -178 c 0
 411 -196 357 -206 300 -206 c 0
 160 -206 66 -130 66 0 c 0
EndSplineSet
Colour: ffff
EndChar

StartChar: uniFECA
Encoding: 65226 65226 77
Width: 613
Flags: W
LayerCount: 2
Fore
SplineSet
66 -92 m 0
 66 111 181 163 272 193 c 1
 253 201 231 208 204 212 c 1
 176 265 l 1
 191 282 202 297 222 308 c 0
 248 323 277 324 306 324 c 0
 338 324 374 322 401 299 c 0
 423 281 430 257 430 232 c 0
 430 213 423 197 413 185 c 1
 451 147 479 103 512 83 c 0
 527 74 542 70 567 70 c 2
 613 70 l 1
 613 0 l 1
 567 0 l 2
 524 0 488 11 460 28 c 0
 410 58 387 101 345 143 c 1
 335 139 325 136 316 133 c 0
 237 107 144 78 144 -92 c 0
 144 -210 232 -234 300 -234 c 0
 348 -234 394 -225 430 -211 c 0
 459 -199 480 -184 494 -168 c 1
 549 -208 l 1
 526 -235 494 -255 457 -270 c 0
 411 -288 357 -298 300 -298 c 0
 160 -298 66 -222 66 -92 c 0
EndSplineSet
Colour: ffff
EndChar

StartChar: uniFECB
Encoding: 65227 65227 78
Width: 613
Flags: W
LayerCount: 2
Fore
SplineSet
0 0 m 1
 0 69 l 1
 114 69 l 2
 137 69 161 71 183 72 c 1
 165 85 136 113 136 164 c 0
 136 263 245 325 342 325 c 0
 422 325 448 305 497 266 c 1
 449 205 l 1
 406 239 399 245 386 250 c 0
 377 253 366 256 342 256 c 0
 285 256 224 219 224 164 c 0
 224 131 242 120 258 113 c 0
 276 105 305 101 339 101 c 0
 371 101 424 110 499 126 c 1
 523 60 l 1
 424 35 285 0 114 0 c 2
 0 0 l 1
EndSplineSet
Colour: ffff
EndChar

StartChar: uniFECC
Encoding: 65228 65228 79
Width: 613
Flags: W
LayerCount: 2
Fore
SplineSet
0 0 m 1
 0 69 l 1
 107 69 l 2
 167 69 257 78 305 128 c 1
 292 171 281 200 204 212 c 1
 176 265 l 1
 191 282 202 297 222 308 c 0
 248 323 277 325 306 325 c 0
 338 325 374 322 401 299 c 0
 423 281 430 257 430 232 c 0
 430 202 425 158 399 117 c 1
 409 90 418 81 440 75 c 0
 452 72 470 69 495 69 c 2
 613 69 l 1
 613 0 l 1
 495 0 l 2
 446 0 376 7 337 56 c 1
 272 13 185 0 107 0 c 2
 0 0 l 1
EndSplineSet
Colour: ffff
EndChar

StartChar: uniFED9
Encoding: 65241 65241 92
Width: 613
Flags: W
LayerCount: 2
Fore
SplineSet
39 -198 m 0
 40 -61 62 89 62 240 c 0
 62 542 l 0
 140 542 l 0
 140 220 l 0
 140 184 142 151 158 118 c 0
 180 75 217 51 255 51 c 0
 298 51 340 81 360 129 c 0
 373 160 376 190 376 227 c 0
 376 542 l 0
 452 542 l 0
 452 137 l 0
 452 119 452 97 462 80 c 0
 470 64 485 56 499 56 c 0
 540 56 564 114 564 114 c 0
 596 53 l 0
 573 18 536 -12 492 -12 c 0
 442 -12 400 29 394 80 c 0
 366 24 310 -13 249 -13 c 0
 192 -13 139 20 114 72 c 0
 114 -18 114 -109 113 -198 c 0
 39 -198 l 0
EndSplineSet
EndChar

StartChar: uniFEDA
Encoding: 65242 65242 93
Width: 613
Flags: W
LayerCount: 2
Fore
SplineSet
39 -198 m 0
 40 -61 62 89 62 240 c 0
 62 542 l 0
 140 542 l 0
 140 220 l 0
 140 184 142 151 158 118 c 0
 180 75 217 51 255 51 c 0
 298 51 340 81 360 129 c 0
 373 160 376 190 376 227 c 0
 376 542 l 0
 452 542 l 0
 452 137 l 0
 452 119 452 97 462 80 c 0
 470 64 485 56 499 56 c 0
 540 56 564 114 564 114 c 0
 596 53 l 0
 573 18 536 -12 492 -12 c 0
 442 -12 400 29 394 80 c 0
 366 24 310 -13 249 -13 c 0
 192 -13 139 20 114 72 c 0
 114 -18 114 -109 113 -198 c 0
 39 -198 l 0
EndSplineSet
EndChar

StartChar: uniFEDB
Encoding: 65243 65243 94
Width: 613
Flags: W
LayerCount: 2
Fore
SplineSet
39 -198 m 0
 40 -61 62 89 62 240 c 0
 62 542 l 0
 140 542 l 0
 140 220 l 0
 140 184 142 151 158 118 c 0
 180 75 217 51 255 51 c 0
 298 51 340 81 360 129 c 0
 373 160 376 190 376 227 c 0
 376 542 l 0
 452 542 l 0
 452 137 l 0
 452 119 452 97 462 80 c 0
 470 64 485 56 499 56 c 0
 540 56 564 114 564 114 c 0
 596 53 l 0
 573 18 536 -12 492 -12 c 0
 442 -12 400 29 394 80 c 0
 366 24 310 -13 249 -13 c 0
 192 -13 139 20 114 72 c 0
 114 -18 114 -109 113 -198 c 0
 39 -198 l 0
EndSplineSet
EndChar

StartChar: uniFEDC
Encoding: 65244 65244 95
Width: 613
Flags: W
LayerCount: 2
Fore
SplineSet
39 -198 m 0
 40 -61 62 89 62 240 c 0
 62 542 l 0
 140 542 l 0
 140 220 l 0
 140 184 142 151 158 118 c 0
 180 75 217 51 255 51 c 0
 298 51 340 81 360 129 c 0
 373 160 376 190 376 227 c 0
 376 542 l 0
 452 542 l 0
 452 137 l 0
 452 119 452 97 462 80 c 0
 470 64 485 56 499 56 c 0
 540 56 564 114 564 114 c 0
 596 53 l 0
 573 18 536 -12 492 -12 c 0
 442 -12 400 29 394 80 c 0
 366 24 310 -13 249 -13 c 0
 192 -13 139 20 114 72 c 0
 114 -18 114 -109 113 -198 c 0
 39 -198 l 0
EndSplineSet
EndChar

StartChar: uniFEDD
Encoding: 65245 65245 96
Width: 613
Flags: W
LayerCount: 2
Fore
SplineSet
65 0 m 1
 152 0 l 1
 152 -37 153 -60 172 -97 c 0
 193 -137 278 -137 320 -137 c 0
 363 -137 421 -113 443 -70 c 0
 462 -32 462 31 462 47 c 2
 462 600 l 1
 559 600 l 1
 559 599 561 598 561 597 c 0
 561 591 556 587 553 584 c 0
 549 580 548 577 548 573 c 1
 549 47 l 2
 549 26 547 -52 528 -96 c 0
 496 -168 411 -206 340 -206 c 2
 274 -206 l 2
 203 -206 122 -206 89 -136 c 0
 67 -89 65 -47 65 0 c 1
EndSplineSet
Colour: ffff
EndChar

StartChar: uniFEDE
Encoding: 65246 65246 97
Width: 613
Flags: W
LayerCount: 2
Fore
SplineSet
65 0 m 1
 152 0 l 1
 152 -37 153 -60 172 -97 c 0
 193 -137 278 -137 320 -137 c 0
 363 -137 421 -113 443 -70 c 0
 462 -32 462 31 462 47 c 2
 462 600 l 1
 559 600 l 1
 559 599 561 598 561 597 c 0
 561 591 556 587 553 584 c 0
 549 580 548 577 548 573 c 2
 549 120 l 2
 550 110 552 101 556 92 c 0
 565 73 582 62 599 62 c 2
 613 62 l 1
 613 0 l 1
 574 0 l 2
 565 0 556 1 547 3 c 1
 545 -29 540 -69 528 -96 c 0
 496 -168 411 -206 340 -206 c 2
 274 -206 l 2
 203 -206 122 -206 89 -136 c 0
 67 -89 65 -47 65 0 c 1
EndSplineSet
Colour: ffff
EndChar

StartChar: uniFEDF
Encoding: 65247 65247 98
Width: 613
Flags: W
LayerCount: 2
Fore
SplineSet
0 0 m 25
 0 69 l 1
 141 69 l 2
 184 69 223 93 245 136 c 0
 264 174 264 218.947290775 264 253 c 2
 264 600 l 5
 362 600 l 4
 362 599 364 598 364 597 c 4
 364 591 359 587 356 584 c 4
 352 580 351 577 351 573 c 5
 351 253 l 2
 351 210.001545995 351 157 330 110 c 0
 298 38 232 0 161 0 c 2
 0 0 l 25
EndSplineSet
Colour: ffff
EndChar

StartChar: uniFEE0
Encoding: 65248 65248 99
Width: 613
Flags: W
LayerCount: 2
Fore
SplineSet
0 0 m 1
 0 69 l 1
 141 69 l 2
 184 69 223 93 245 136 c 0
 264 172 264 213 264 249 c 0
 264 250 264 252.067069732 264 253 c 2
 264 600 l 1
 362 600 l 1
 362 599 364 598 364 597 c 0
 364 591 359 587 356 584 c 0
 352 580 351 577 351 573 c 2
 351 253 l 2
 351 252.071935764 351 250 351 249 c 0
 351 213 351 172 370 136 c 0
 392 93 431 69 474 69 c 2
 613 69 l 1
 613 0 l 1
 454 0 l 2
 397 0 344 25 308 72 c 1
 272 25 218 0 161 0 c 2
 0 0 l 1
EndSplineSet
Colour: ffff
EndChar

StartChar: uniFEE1
Encoding: 65249 65249 100
Width: 613
Flags: W
LayerCount: 2
Fore
SplineSet
39 -198 m 0
 40 -61 62 89 62 240 c 0
 62 542 l 0
 140 542 l 0
 140 220 l 0
 140 184 142 151 158 118 c 0
 180 75 217 51 255 51 c 0
 298 51 340 81 360 129 c 0
 373 160 376 190 376 227 c 0
 376 542 l 0
 452 542 l 0
 452 137 l 0
 452 119 452 97 462 80 c 0
 470 64 485 56 499 56 c 0
 540 56 564 114 564 114 c 0
 596 53 l 0
 573 18 536 -12 492 -12 c 0
 442 -12 400 29 394 80 c 0
 366 24 310 -13 249 -13 c 0
 192 -13 139 20 114 72 c 0
 114 -18 114 -109 113 -198 c 0
 39 -198 l 0
EndSplineSet
EndChar

StartChar: uniFEE2
Encoding: 65250 65250 101
Width: 613
Flags: W
LayerCount: 2
Fore
SplineSet
39 -198 m 0
 40 -61 62 89 62 240 c 0
 62 542 l 0
 140 542 l 0
 140 220 l 0
 140 184 142 151 158 118 c 0
 180 75 217 51 255 51 c 0
 298 51 340 81 360 129 c 0
 373 160 376 190 376 227 c 0
 376 542 l 0
 452 542 l 0
 452 137 l 0
 452 119 452 97 462 80 c 0
 470 64 485 56 499 56 c 0
 540 56 564 114 564 114 c 0
 596 53 l 0
 573 18 536 -12 492 -12 c 0
 442 -12 400 29 394 80 c 0
 366 24 310 -13 249 -13 c 0
 192 -13 139 20 114 72 c 0
 114 -18 114 -109 113 -198 c 0
 39 -198 l 0
EndSplineSet
EndChar

StartChar: uniFEE3
Encoding: 65251 65251 102
Width: 613
Flags: W
LayerCount: 2
Fore
SplineSet
39 -198 m 0
 40 -61 62 89 62 240 c 0
 62 542 l 0
 140 542 l 0
 140 220 l 0
 140 184 142 151 158 118 c 0
 180 75 217 51 255 51 c 0
 298 51 340 81 360 129 c 0
 373 160 376 190 376 227 c 0
 376 542 l 0
 452 542 l 0
 452 137 l 0
 452 119 452 97 462 80 c 0
 470 64 485 56 499 56 c 0
 540 56 564 114 564 114 c 0
 596 53 l 0
 573 18 536 -12 492 -12 c 0
 442 -12 400 29 394 80 c 0
 366 24 310 -13 249 -13 c 0
 192 -13 139 20 114 72 c 0
 114 -18 114 -109 113 -198 c 0
 39 -198 l 0
EndSplineSet
EndChar

StartChar: uniFEE4
Encoding: 65252 65252 103
Width: 613
Flags: W
LayerCount: 2
Fore
SplineSet
39 -198 m 0
 40 -61 62 89 62 240 c 0
 62 542 l 0
 140 542 l 0
 140 220 l 0
 140 184 142 151 158 118 c 0
 180 75 217 51 255 51 c 0
 298 51 340 81 360 129 c 0
 373 160 376 190 376 227 c 0
 376 542 l 0
 452 542 l 0
 452 137 l 0
 452 119 452 97 462 80 c 0
 470 64 485 56 499 56 c 0
 540 56 564 114 564 114 c 0
 596 53 l 0
 573 18 536 -12 492 -12 c 0
 442 -12 400 29 394 80 c 0
 366 24 310 -13 249 -13 c 0
 192 -13 139 20 114 72 c 0
 114 -18 114 -109 113 -198 c 0
 39 -198 l 0
EndSplineSet
EndChar

StartChar: uniFEE9
Encoding: 65257 65257 108
Width: 613
Flags: W
LayerCount: 2
Fore
SplineSet
143 129 m 0
 143 180 197 217 246 251 c 0
 253 255 259 260 265 264 c 1
 263 265 l 1
 310 325 l 1
 338 303 344 299 382 278 c 0
 427 253 475 227 475 158 c 0
 475 62 388 -12 288 -12 c 0
 240 -12 143 4 143 129 c 0
229 129 m 0
 229 102 235 84 243 74 c 0
 248 68 257 56 288 56 c 0
 340 56 389 101 389 158 c 0
 389 188 378 197 334 221 c 1
 324 213 313 206 303 199 c 0
 268 175 229 148 229 129 c 0
EndSplineSet
Colour: ffff
EndChar

StartChar: uniFEEA
Encoding: 65258 65258 109
Width: 613
Flags: W
LayerCount: 2
Fore
SplineSet
210 143 m 0
 210 100 238 54 277 54 c 0
 302 54 364 58 380 232 c 1
 358 247 344 256 305 256 c 0
 259 256 210 224 210 143 c 0
122 143 m 0
 122 272 221 324 305 324 c 0
 336 324 361 321 383 313 c 1
 383 317 384 321 384 325 c 1
 470 325 l 1
 470 318 470 311 470 304 c 2
 470 253 l 2
 470 226 470 174 489 136 c 0
 511 93 551 69 593 69 c 2
 613 69 l 1
 613 0 l 1
 573 0 l 2
 516 0 463 25 427 72 c 1
 410 41 387 17 356 2 c 0
 333 -9 305 -14 277 -14 c 0
 191 -14 122 54 122 143 c 0
EndSplineSet
Colour: ffff
EndChar

StartChar: uniFEEB
Encoding: 65259 65259 110
Width: 613
Flags: W
LayerCount: 2
Fore
SplineSet
242 143 m 0
 242 128 249 111 261 97 c 1
 331 121 332 148 332 158 c 0
 332 177 304 190 289 190 c 0
 272 190 242 168 242 143 c 0
0 0 m 1
 0 69 l 1
 65 69 l 2
 94 69 134 72 175 78 c 1
 163 98 156 120 156 143 c 0
 156 204 220 258 289 258 c 0
 353 258 420 216 420 158 c 0
 420 112 387 78 347 56 c 1
 399 59 462 88 462 154 c 0
 462 222 427 263 319 315 c 1
 351 381 l 1
 364 374 l 2
 490 313 550 252 550 154 c 0
 550 53 450 -14 337 -14 c 0
 299 -14 265 0 236 18 c 1
 209 12 144 0 65 0 c 2
 0 0 l 1
EndSplineSet
Colour: ffff
EndChar

StartChar: uniFEEC
Encoding: 65260 65260 111
Width: 613
Flags: W
LayerCount: 2
Fore
SplineSet
254 4 m 1
 271 -85 310 -136 338 -136 c 0
 339 -136 361 -134 387 -112 c 0
 402 -99 408 -86 408 -79 c 0
 408 -55 404 -37 398 -24 c 0
 390 -9 382 -2 367 3 c 1
 378 49 l 1
 366 42 316 14 254 4 c 1
0 0 m 1
 0 69 l 1
 160 69 l 1
 163 175 271 324 396 324 c 0
 419 324 469 318 488 264 c 0
 496 242 497 220 497 197 c 0
 497 151 457 104 409 69 c 1
 613 69 l 1
 613 0 l 1
 479 0 l 1
 490 -23 495 -49 495 -79 c 0
 495 -143 405 -206 338 -206 c 0
 273 -206 213 -161 180 -56 c 0
 174 -37 169 -19 166 0 c 1
 0 0 l 1
248 73 m 1
 331 91 410 160 410 197 c 0
 410 217 408 234 404 245 c 0
 400 255 399 256 396 256 c 0
 339 256 254 156 248 73 c 1
EndSplineSet
Colour: ffff
EndChar

StartChar: uniFEED
Encoding: 65261 65261 112
Width: 613
Flags: W
LayerCount: 2
Fore
SplineSet
358 199 m 0
 358 147 395 128 460 125 c 1
 462 140 462 155 462 172 c 0
 462 189 461 229 439 247 c 0
 432 252 425 256 410 256 c 0
 394 256 358 255 358 199 c 0
99 -137 m 1
 327 -102 413 -38 446 57 c 1
 379 62 330 82 302 113 c 0
 277 141 270 173 270 199 c 0
 270 230 279 258 299 281 c 0
 325 310 366 324 410 324 c 0
 471 324 550 293 550 172 c 0
 550 -73 393 -162 109 -206 c 1
 99 -137 l 1
EndSplineSet
Colour: ffff
EndChar

StartChar: uniFEEE
Encoding: 65262 65262 113
Width: 613
Flags: W
LayerCount: 2
Fore
SplineSet
358 172 m 0
 358 151 364 82 450 71 c 1
 458 100 462 134 462 172 c 0
 462 189 461 229 439 247 c 0
 432 252 425 256 410 256 c 0
 380 256 358 214 358 172 c 0
99 -137 m 1
 287 -108 376 -60 421 6 c 1
 313 26 270 104 270 172 c 0
 270 256 327 324 410 324 c 0
 471 324 550 293 550 172 c 0
 550 135 546 102 539 70 c 1
 613 70 l 1
 613 0 l 1
 514 0 l 1
 444 -135 275 -181 109 -206 c 1
 99 -137 l 1
EndSplineSet
Colour: ffff
EndChar

StartChar: uniFEEF
Encoding: 65263 65263 114
Width: 613
Flags: W
LayerCount: 2
Fore
SplineSet
18 7 m 0
 18 106 29 144 44 185 c 1
 124 157 l 1
 109 114 104 68 104 7 c 0
 104 -68 148 -136 214 -136 c 0
 473 -136 500 -113 500 -65 c 0
 500 -1 450 15 360 38 c 0
 299 53 198 75 198 159 c 0
 198 204 202 348 394 348 c 0
 434 348 521 338 571 261 c 1
 502 216 l 1
 488 238 479 250 459 262 c 0
 442 272 422 278 394 278 c 0
 334 278 317 259 308 248 c 0
 295 231 286 202 286 159 c 0
 286 133 310 123 386 104 c 0
 469 83 588 53 588 -65 c 0
 588 -204 400 -206 214 -206 c 0
 96 -206 18 -110 18 7 c 0
EndSplineSet
Colour: ffff
EndChar

StartChar: uniFEF0
Encoding: 65264 65264 115
Width: 613
Flags: W
LayerCount: 2
Fore
SplineSet
17 22 m 0
 17 94 35 161 44 185 c 1
 124 157 l 1
 111 120 104 75 104 32 c 0
 104 -57 135 -136 215 -136 c 0
 364 -136 469 -130 492 -116 c 0
 497 -113 500 -102 500 -86 c 0
 500 -32 404 1 269 42 c 0
 261 44 252 47 244 50 c 1
 273 115 l 1
 337 99 368 84 427 76 c 0
 457 72 495 70 548 70 c 2
 613 70 l 1
 613 0 l 1
 548 0 l 2
 547 0 545 1 544 1 c 1
 570 -22 588 -51 588 -86 c 0
 588 -176 506 -184 448 -192 c 0
 393 -200 325 -206 239 -206 c 0
 59 -206 17 -88 17 22 c 0
EndSplineSet
Colour: ffff
EndChar

StartChar: uniFEF5
Encoding: 65269 65269 120
Width: 613
Flags: W
LayerCount: 2
Fore
SplineSet
39 -198 m 0
 40 -61 62 89 62 240 c 0
 62 542 l 0
 140 542 l 0
 140 220 l 0
 140 184 142 151 158 118 c 0
 180 75 217 51 255 51 c 0
 298 51 340 81 360 129 c 0
 373 160 376 190 376 227 c 0
 376 542 l 0
 452 542 l 0
 452 137 l 0
 452 119 452 97 462 80 c 0
 470 64 485 56 499 56 c 0
 540 56 564 114 564 114 c 0
 596 53 l 0
 573 18 536 -12 492 -12 c 0
 442 -12 400 29 394 80 c 0
 366 24 310 -13 249 -13 c 0
 192 -13 139 20 114 72 c 0
 114 -18 114 -109 113 -198 c 0
 39 -198 l 0
EndSplineSet
LCarets2: 1 306
Ligature2: "Lam-Alef ligature-1" uniFEDF uniFE82
EndChar

StartChar: uniFEF6
Encoding: 65270 65270 121
Width: 613
Flags: W
LayerCount: 2
Fore
SplineSet
39 -198 m 0
 40 -61 62 89 62 240 c 0
 62 542 l 0
 140 542 l 0
 140 220 l 0
 140 184 142 151 158 118 c 0
 180 75 217 51 255 51 c 0
 298 51 340 81 360 129 c 0
 373 160 376 190 376 227 c 0
 376 542 l 0
 452 542 l 0
 452 137 l 0
 452 119 452 97 462 80 c 0
 470 64 485 56 499 56 c 0
 540 56 564 114 564 114 c 0
 596 53 l 0
 573 18 536 -12 492 -12 c 0
 442 -12 400 29 394 80 c 0
 366 24 310 -13 249 -13 c 0
 192 -13 139 20 114 72 c 0
 114 -18 114 -109 113 -198 c 0
 39 -198 l 0
EndSplineSet
LCarets2: 1 306
Ligature2: "Lam-Alef ligature-1" uniFEE0 uniFE82
EndChar

StartChar: uniFEF7
Encoding: 65271 65271 122
Width: 613
Flags: W
LayerCount: 2
Fore
SplineSet
39 -198 m 0
 40 -61 62 89 62 240 c 0
 62 542 l 0
 140 542 l 0
 140 220 l 0
 140 184 142 151 158 118 c 0
 180 75 217 51 255 51 c 0
 298 51 340 81 360 129 c 0
 373 160 376 190 376 227 c 0
 376 542 l 0
 452 542 l 0
 452 137 l 0
 452 119 452 97 462 80 c 0
 470 64 485 56 499 56 c 0
 540 56 564 114 564 114 c 0
 596 53 l 0
 573 18 536 -12 492 -12 c 0
 442 -12 400 29 394 80 c 0
 366 24 310 -13 249 -13 c 0
 192 -13 139 20 114 72 c 0
 114 -18 114 -109 113 -198 c 0
 39 -198 l 0
EndSplineSet
LCarets2: 1 306
Ligature2: "Lam-Alef ligature-1" uniFEDF uniFE84
EndChar

StartChar: uniFEF8
Encoding: 65272 65272 123
Width: 613
Flags: W
LayerCount: 2
Fore
SplineSet
39 -198 m 0
 40 -61 62 89 62 240 c 0
 62 542 l 0
 140 542 l 0
 140 220 l 0
 140 184 142 151 158 118 c 0
 180 75 217 51 255 51 c 0
 298 51 340 81 360 129 c 0
 373 160 376 190 376 227 c 0
 376 542 l 0
 452 542 l 0
 452 137 l 0
 452 119 452 97 462 80 c 0
 470 64 485 56 499 56 c 0
 540 56 564 114 564 114 c 0
 596 53 l 0
 573 18 536 -12 492 -12 c 0
 442 -12 400 29 394 80 c 0
 366 24 310 -13 249 -13 c 0
 192 -13 139 20 114 72 c 0
 114 -18 114 -109 113 -198 c 0
 39 -198 l 0
EndSplineSet
LCarets2: 1 306
Ligature2: "Lam-Alef ligature-1" uniFEE0 uniFE84
EndChar

StartChar: uniFEF9
Encoding: 65273 65273 124
Width: 613
Flags: W
LayerCount: 2
Fore
SplineSet
39 -198 m 0
 40 -61 62 89 62 240 c 0
 62 542 l 0
 140 542 l 0
 140 220 l 0
 140 184 142 151 158 118 c 0
 180 75 217 51 255 51 c 0
 298 51 340 81 360 129 c 0
 373 160 376 190 376 227 c 0
 376 542 l 0
 452 542 l 0
 452 137 l 0
 452 119 452 97 462 80 c 0
 470 64 485 56 499 56 c 0
 540 56 564 114 564 114 c 0
 596 53 l 0
 573 18 536 -12 492 -12 c 0
 442 -12 400 29 394 80 c 0
 366 24 310 -13 249 -13 c 0
 192 -13 139 20 114 72 c 0
 114 -18 114 -109 113 -198 c 0
 39 -198 l 0
EndSplineSet
LCarets2: 1 306
Ligature2: "Lam-Alef ligature-1" uniFEDF uniFE88
EndChar

StartChar: uniFEFA
Encoding: 65274 65274 125
Width: 613
Flags: W
LayerCount: 2
Fore
SplineSet
39 -198 m 0
 40 -61 62 89 62 240 c 0
 62 542 l 0
 140 542 l 0
 140 220 l 0
 140 184 142 151 158 118 c 0
 180 75 217 51 255 51 c 0
 298 51 340 81 360 129 c 0
 373 160 376 190 376 227 c 0
 376 542 l 0
 452 542 l 0
 452 137 l 0
 452 119 452 97 462 80 c 0
 470 64 485 56 499 56 c 0
 540 56 564 114 564 114 c 0
 596 53 l 0
 573 18 536 -12 492 -12 c 0
 442 -12 400 29 394 80 c 0
 366 24 310 -13 249 -13 c 0
 192 -13 139 20 114 72 c 0
 114 -18 114 -109 113 -198 c 0
 39 -198 l 0
EndSplineSet
LCarets2: 1 306
Ligature2: "Lam-Alef ligature-1" uniFEE0 uniFE88
EndChar

StartChar: uniFEFB
Encoding: 65275 65275 126
Width: 613
Flags: W
LayerCount: 2
Fore
SplineSet
506 600 m 25
 506 500 l 2
 506 275 241 53 107 35 c 1
 506 35 l 1
 503 312 232 452 65 500 c 1025
EndSplineSet
LCarets2: 1 306
Ligature2: "Lam-Alef ligature-1" uniFEDF uniFE8E
EndChar

StartChar: uniFEFC
Encoding: 65276 65276 127
Width: 613
Flags: W
LayerCount: 2
Fore
SplineSet
39 -198 m 0
 40 -61 62 89 62 240 c 0
 62 542 l 0
 140 542 l 0
 140 220 l 0
 140 184 142 151 158 118 c 0
 180 75 217 51 255 51 c 0
 298 51 340 81 360 129 c 0
 373 160 376 190 376 227 c 0
 376 542 l 0
 452 542 l 0
 452 137 l 0
 452 119 452 97 462 80 c 0
 470 64 485 56 499 56 c 0
 540 56 564 114 564 114 c 0
 596 53 l 0
 573 18 536 -12 492 -12 c 0
 442 -12 400 29 394 80 c 0
 366 24 310 -13 249 -13 c 0
 192 -13 139 20 114 72 c 0
 114 -18 114 -109 113 -198 c 0
 39 -198 l 0
EndSplineSet
LCarets2: 1 306
Ligature2: "Lam-Alef ligature-1" uniFEE0 uniFE8E
EndChar

StartChar: uni066E.isol
Encoding: 1114112 -1 128
Width: 613
Flags: W
LayerCount: 2
Fore
SplineSet
65 240 m 2
 65 325 l 25
 163 325 l 0
 163 324 165 323 165 322 c 0
 165 316 160 312 157 309 c 0
 153 305 152 302 152 298 c 10
 152 240 l 2
 152 203 153 133 172 96 c 0
 193 56 278 56 320 56 c 0
 363 56 421 80 443 123 c 0
 462 161 462 203 462 240 c 2
 462 325 l 25
 548 325 l 25
 549 240 l 2
 550 193 550 144 528 97 c 0
 496 25 411 -13 340 -13 c 2
 274 -13 l 2
 203 -13 121 -13 89 57 c 0
 67 104 65 193 65 240 c 2
EndSplineSet
Colour: ffff
EndChar

StartChar: uni066E.fina
Encoding: 1114113 -1 129
Width: 613
Flags: W
LayerCount: 2
Fore
SplineSet
65 240 m 2
 65 325 l 1
 163 325 l 1
 163 324 165 323 165 322 c 0
 165 316 160 312 157 309 c 0
 153 305 152 302 152 298 c 2
 152 240 l 2
 152 203 152 133 172 96 c 0
 194 56 251 56 294 56 c 0
 346 56 416 91 441 136 c 0
 459 170 462 202 462 244 c 2
 462 325 l 1
 548 325 l 1
 548 141 l 2
 548 124 549 107 556 92 c 0
 565 73 582 62 599 62 c 2
 613 62 l 1
 613 0 l 1
 574 0 l 2
 544 0 510 11 490 43 c 0
 480 57 474 73 470 89 c 1
 414 15 335 -13 274 -13 c 0
 203 -13 121 -13 89 57 c 0
 67 104 65 193 65 240 c 2
EndSplineSet
Colour: ffff
EndChar

StartChar: uniFBE8
Encoding: 64488 64488 130
Width: 613
Flags: W
LayerCount: 2
Fore
SplineSet
0 0 m 25
 0 69 l 1
 141 69 l 2
 184 69 223 93 245 136 c 0
 264 174 264 216 264 253 c 2
 264 325 l 1
 362 325 l 0
 362 324 364 323 364 322 c 0
 364 316 359 312 356 309 c 0
 352 305 351 302 351 298 c 1
 351 253 l 2
 351 206 351 157 330 110 c 0
 298 38 232 0 161 0 c 2
 0 0 l 25
EndSplineSet
Colour: ffff
EndChar

StartChar: uniFBE9
Encoding: 64489 64489 131
Width: 613
Flags: W
LayerCount: 2
Fore
SplineSet
0 0 m 1
 0 69 l 1
 141 69 l 2
 184 69 223 93 245 136 c 0
 264 172 264 213 264 249 c 0
 264 250 264 252 264 253 c 2
 264 325 l 1
 362 325 l 1
 362 324 364 323 364 322 c 0
 364 316 359 312 356 309 c 0
 352 305 351 302 351 298 c 2
 351 253 l 2
 351 252 351 250 351 249 c 0
 351 213 351 172 370 136 c 0
 392 93 431 69 474 69 c 2
 613 69 l 1
 613 0 l 1
 454 0 l 2
 397 0 344 25 308 72 c 1
 272 25 218 0 161 0 c 2
 0 0 l 1
EndSplineSet
Colour: ffff
EndChar

StartChar: uni06A1.isol
Encoding: 1114114 -1 132
Width: 613
Flags: W
LayerCount: 2
Fore
SplineSet
64 154 m 2
 64 239 l 1
 162 239 l 1
 162 238 164 237 164 236 c 0
 164 230 159 226 156 223 c 0
 152 219 151 216 151 212 c 2
 151 154 l 2
 151 105 168 94 190 86 c 0
 217 76 271 70 356 70 c 0
 362 70 368 70 373 70 c 1
 332 84 270 118 270 199 c 0
 270 230 279 258 299 281 c 0
 325 310 366 324 410 324 c 0
 471 324 550 293 550 172 c 0
 550 57 460 0 356 0 c 0
 232 0 117 8 78 84 c 0
 67 105 64 129 64 154 c 2
358 199 m 0
 358 147 395 129 454 125 c 1
 459 138 462 153 462 172 c 0
 462 189 461 229 439 247 c 0
 432 252 425 256 410 256 c 0
 394 256 358 255 358 199 c 0
EndSplineSet
Colour: ffff
EndChar

StartChar: uni06A1.fina
Encoding: 1114115 -1 133
Width: 613
Flags: W
LayerCount: 2
Fore
SplineSet
64 154 m 2
 64 239 l 1
 162 239 l 1
 162 238 164 237 164 236 c 0
 164 230 159 226 156 223 c 0
 152 219 151 216 151 212 c 2
 151 154 l 2
 151 105 168 94 190 86 c 0
 213 78 254 72 316 70 c 1
 306 82 270 130 270 199 c 0
 270 230 279 258 299 281 c 0
 325 310 366 324 410 324 c 0
 471 324 550 293 550 172 c 0
 550 133 539 98 518 70 c 1
 613 70 l 1
 613 0 l 1
 478 0 l 2
 456 0 435 3 417 8 c 1
 398 3 377 0 356 0 c 0
 232 0 117 8 78 84 c 0
 67 105 64 129 64 154 c 2
358 199 m 0
 358 186 363 114 418 83 c 1
 429 89 462 111 462 172 c 0
 462 189 461 229 439 247 c 0
 432 252 425 256 410 256 c 0
 394 256 358 255 358 199 c 0
EndSplineSet
Colour: ffff
EndChar

StartChar: uni066F.isol
Encoding: 1114116 -1 134
Width: 613
Flags: W
LayerCount: 2
Fore
SplineSet
358 199 m 0
 358 147 396 128 462 125 c 1
 463 140 462 155 462 172 c 0
 462 189 461 229 439 247 c 0
 432 252 425 257 410 257 c 0
 394 257 358 255 358 199 c 0
64 0 m 0
 64 94 70 109 116 187 c 1
 187 145 l 1
 153 88 150 76 150 0 c 0
 150 -51 172 -136 314 -136 c 0
 355 -136 389 -128 416 -83 c 0
 433 -55 448 -10 456 56 c 1
 383 59 332 80 302 113 c 0
 277 141 270 173 270 199 c 0
 270 230 279 258 299 281 c 0
 325 310 366 325 410 325 c 0
 471 325 550 293 550 172 c 0
 550 -82 483 -206 314 -206 c 0
 229 -206 159 -181 115 -135 c 0
 80 -99 64 -51 64 0 c 0
EndSplineSet
Colour: ffff
EndChar

StartChar: uni066F.fina
Encoding: 1114117 -1 135
Width: 613
Flags: W
LayerCount: 2
Fore
SplineSet
358 199 m 0
 358 185 364 82 458 71 c 1
 461 101 462 134 462 172 c 0
 462 189 461 229 439 247 c 0
 432 252 425 257 410 257 c 0
 394 257 358 255 358 199 c 0
64 0 m 0
 64 94 70 109 116 187 c 1
 187 145 l 1
 153 88 151 76 151 0 c 0
 151 -51 172 -136 314 -136 c 0
 357 -136 418 -131 447 2 c 1
 311 18 270 129 270 199 c 0
 270 230 279 258 299 281 c 0
 325 310 366 325 410 325 c 0
 471 325 550 293 550 172 c 0
 550 134 548 101 545 70 c 1
 613 70 l 1
 613 0 l 1
 535 0 l 1
 502 -164 414 -206 314 -206 c 0
 229 -206 159 -181 115 -135 c 0
 80 -99 64 -51 64 0 c 0
EndSplineSet
Colour: ffff
EndChar

StartChar: uni066F.init
Encoding: 1114118 -1 136
Width: 613
Flags: W
LayerCount: 2
Fore
SplineSet
254 199 m 0
 254 147 291 129 350 125 c 1
 355 138 358 153 358 172 c 0
 358 189 357 229 335 247 c 0
 328 252 321 257 306 257 c 0
 290 257 254 255 254 199 c 0
0 0 m 1
 0 71 l 1
 269 71 l 1
 228 85 166 118 166 199 c 0
 166 230 175 258 195 281 c 0
 221 310 262 325 306 325 c 0
 367 325 446 293 446 172 c 0
 446 57 356 0 252 0 c 2
 0 0 l 1
EndSplineSet
Colour: ffff
EndChar

StartChar: uni066F.medi
Encoding: 1114119 -1 137
Width: 613
Flags: W
LayerCount: 2
Fore
SplineSet
254 199 m 0
 254 186 259 114 314 83 c 1
 325 89 358 111 358 172 c 0
 358 189 357 229 335 247 c 0
 328 252 321 257 306 257 c 0
 290 257 254 255 254 199 c 0
0 0 m 1
 0 69 l 1
 212 69 l 1
 202 81 166 130 166 199 c 0
 166 230 175 258 195 281 c 0
 221 310 262 325 306 325 c 0
 367 325 446 293 446 172 c 0
 446 133 435 97 414 69 c 1
 613 69 l 1
 613 0 l 1
 374 0 l 2
 352 0 331 3 313 8 c 1
 294 3 273 0 252 0 c 2
 0 0 l 1
EndSplineSet
Colour: ffff
EndChar

StartChar: uniFB9E
Encoding: 64414 64414 138
Width: 613
Flags: W
LayerCount: 2
Fore
SplineSet
65 47 m 0
 65 141 72 247 118 325 c 1
 189 283 l 1
 155 226 152 123 152 47 c 0
 152 10 153 -60 172 -97 c 0
 193 -137 278 -137 320 -137 c 0
 363 -137 421 -113 443 -70 c 0
 462 -32 462 10 462 47 c 2
 462 325 l 25
 559 325 l 0
 559 324 561 323 561 322 c 0
 561 316 556 312 553 309 c 0
 549 305 548 302 548 298 c 10
 549 47 l 2
 549 0 550 -49 528 -96 c 0
 496 -168 411 -206 340 -206 c 2
 274 -206 l 2
 203 -206 121 -206 89 -136 c 0
 67 -89 65 0 65 47 c 0
EndSplineSet
Colour: ffff
EndChar

StartChar: uniFB9F
Encoding: 64415 64415 139
Width: 613
Flags: W
LayerCount: 2
Fore
SplineSet
65 47 m 0
 65 141 72 247 118 325 c 1
 189 283 l 1
 155 226 152 123 152 47 c 0
 152 10 153 -60 172 -97 c 0
 193 -137 278 -137 320 -137 c 0
 363 -137 421 -113 443 -70 c 0
 462 -32 462 10 462 47 c 2
 462 325 l 1
 548 325 l 1
 559 325 l 1
 559 324 561 323 561 322 c 0
 561 316 556 312 553 309 c 0
 549 305 548 302 548 298 c 2
 549 122 l 2
 550 112 552 101 556 92 c 0
 565 73 582 62 599 62 c 2
 613 62 l 1
 613 0 l 1
 574 0 l 2
 566 0 557 1 549 3 c 1
 548 -30 543 -64 528 -96 c 0
 496 -168 411 -206 340 -206 c 2
 274 -206 l 2
 203 -206 121 -206 89 -136 c 0
 67 -89 65 0 65 47 c 0
EndSplineSet
Colour: ffff
EndChar

StartChar: uniFEB1.alt
Encoding: 1114120 -1 140
Width: 613
VWidth: 1046
Flags: W
LayerCount: 2
Fore
SplineSet
0 -104 m 1
 12 -95 22 -83 29 -70 c 0
 48 -32 54 10 54 47 c 2
 54 132 l 2
 54 133 54 135 54 136 c 2
 54 325 l 1
 135 325 l 1
 135 156 l 2
 135 148 134 138 134 129 c 2
 134 118 l 2
 135 104 137 90 142 77 c 0
 151 58 168 47 185 47 c 0
 218 47 239 82 248 97 c 0
 267 130 271 153 271 182 c 2
 271 325 l 1
 351 325 l 1
 351 138 l 2
 351 116 351 51 406 51 c 0
 428 51 452 65 471 101 c 0
 486 130 489 153 489 179 c 2
 489 325 l 1
 567 325 l 1
 567 179 l 2
 567 30 461 -15 407 -15 c 0
 358 -15 290 19 282 64 c 1
 260 16 212 -15 160 -15 c 0
 152 -15 143 -14 134 -12 c 1
 132 -40 127 -68 114 -96 c 0
 93 -144 48 -176 -0 -193 c 1
 0 -104 l 1
EndSplineSet
Colour: ffff
EndChar

StartChar: uniFEB2.alt
Encoding: 1114121 -1 141
Width: 613
VWidth: 1046
Flags: W
LayerCount: 2
Fore
SplineSet
0 -104 m 1
 12 -95 22 -83 29 -70 c 0
 48 -32 54 10 54 47 c 2
 54 132 l 2
 54 133 54 135 54 136 c 2
 54 325 l 1
 135 325 l 1
 135 156 l 2
 135 148 134 138 134 129 c 2
 134 118 l 2
 135 104 137 90 142 77 c 0
 151 58 168 47 185 47 c 0
 218 47 239 82 248 97 c 0
 267 130 271 153 271 182 c 2
 271 325 l 1
 351 325 l 1
 351 138 l 2
 351 116 351 51 406 51 c 0
 428 51 452 65 471 101 c 0
 486 130 489 153 489 179 c 2
 489 325 l 1
 567 325 l 1
 567 141 l 2
 567 124 569 107 575 92 c 0
 584 73 596 62 613 62 c 1
 613 0 l 1
 593 0 l 2
 563 0 531 12 509 43 c 0
 505 49 501 57 498 66 c 1
 474 28 435 -15 378 -15 c 0
 329 -15 290 19 282 64 c 1
 260 16 212 -15 160 -15 c 0
 152 -15 143 -14 134 -12 c 1
 132 -40 127 -68 114 -96 c 0
 93 -144 48 -176 0 -193 c 1
 0 -104 l 1
EndSplineSet
Colour: ffff
EndChar

StartChar: reserved
Encoding: 1114124 -1 144
Width: 613
Flags: W
LayerCount: 2
Fore
SplineSet
39 -198 m 0
 40 -61 62 89 62 240 c 0
 62 542 l 0
 140 542 l 0
 140 220 l 0
 140 184 142 151 158 118 c 0
 180 75 217 51 255 51 c 0
 298 51 340 81 360 129 c 0
 373 160 376 190 376 227 c 0
 376 542 l 0
 452 542 l 0
 452 137 l 0
 452 119 452 97 462 80 c 0
 470 64 485 56 499 56 c 0
 540 56 564 114 564 114 c 0
 596 53 l 0
 573 18 536 -12 492 -12 c 0
 442 -12 400 29 394 80 c 0
 366 24 310 -13 249 -13 c 0
 192 -13 139 20 114 72 c 0
 114 -18 114 -109 113 -198 c 0
 39 -198 l 0
EndSplineSet
EndChar

StartChar: uniFEB9.alt
Encoding: 1114125 -1 145
Width: 613
Flags: W
LayerCount: 2
Fore
SplineSet
39 -198 m 0
 40 -61 62 89 62 240 c 0
 62 542 l 0
 140 542 l 0
 140 220 l 0
 140 184 142 151 158 118 c 0
 180 75 217 51 255 51 c 0
 298 51 340 81 360 129 c 0
 373 160 376 190 376 227 c 0
 376 542 l 0
 452 542 l 0
 452 137 l 0
 452 119 452 97 462 80 c 0
 470 64 485 56 499 56 c 0
 540 56 564 114 564 114 c 0
 596 53 l 0
 573 18 536 -12 492 -12 c 0
 442 -12 400 29 394 80 c 0
 366 24 310 -13 249 -13 c 0
 192 -13 139 20 114 72 c 0
 114 -18 114 -109 113 -198 c 0
 39 -198 l 0
EndSplineSet
EndChar

StartChar: uniFEBC.alt
Encoding: 1114126 -1 146
Width: 613
Flags: W
LayerCount: 2
Fore
SplineSet
39 -198 m 0
 40 -61 62 89 62 240 c 0
 62 542 l 0
 140 542 l 0
 140 220 l 0
 140 184 142 151 158 118 c 0
 180 75 217 51 255 51 c 0
 298 51 340 81 360 129 c 0
 373 160 376 190 376 227 c 0
 376 542 l 0
 452 542 l 0
 452 137 l 0
 452 119 452 97 462 80 c 0
 470 64 485 56 499 56 c 0
 540 56 564 114 564 114 c 0
 596 53 l 0
 573 18 536 -12 492 -12 c 0
 442 -12 400 29 394 80 c 0
 366 24 310 -13 249 -13 c 0
 192 -13 139 20 114 72 c 0
 114 -18 114 -109 113 -198 c 0
 39 -198 l 0
EndSplineSet
EndChar

StartChar: uniFEBD.alt
Encoding: 1114127 -1 147
Width: 613
Flags: W
LayerCount: 2
Fore
SplineSet
39 -198 m 0
 40 -61 62 89 62 240 c 0
 62 542 l 0
 140 542 l 0
 140 220 l 0
 140 184 142 151 158 118 c 0
 180 75 217 51 255 51 c 0
 298 51 340 81 360 129 c 0
 373 160 376 190 376 227 c 0
 376 542 l 0
 452 542 l 0
 452 137 l 0
 452 119 452 97 462 80 c 0
 470 64 485 56 499 56 c 0
 540 56 564 114 564 114 c 0
 596 53 l 0
 573 18 536 -12 492 -12 c 0
 442 -12 400 29 394 80 c 0
 366 24 310 -13 249 -13 c 0
 192 -13 139 20 114 72 c 0
 114 -18 114 -109 113 -198 c 0
 39 -198 l 0
EndSplineSet
EndChar

StartChar: uniFEBE.alt
Encoding: 1114128 -1 148
Width: 613
Flags: W
LayerCount: 2
Fore
SplineSet
39 -198 m 0
 40 -61 62 89 62 240 c 0
 62 542 l 0
 140 542 l 0
 140 220 l 0
 140 184 142 151 158 118 c 0
 180 75 217 51 255 51 c 0
 298 51 340 81 360 129 c 0
 373 160 376 190 376 227 c 0
 376 542 l 0
 452 542 l 0
 452 137 l 0
 452 119 452 97 462 80 c 0
 470 64 485 56 499 56 c 0
 540 56 564 114 564 114 c 0
 596 53 l 0
 573 18 536 -12 492 -12 c 0
 442 -12 400 29 394 80 c 0
 366 24 310 -13 249 -13 c 0
 192 -13 139 20 114 72 c 0
 114 -18 114 -109 113 -198 c 0
 39 -198 l 0
EndSplineSet
EndChar

StartChar: uniFE73
Encoding: 65139 65139 149
Width: 613
VWidth: 1046
Flags: W
LayerCount: 2
Fore
SplineSet
330 47 m 2
 330 132 l 1
 428 132 l 1
 428 131 430 130 430 129 c 0
 430 123 425 119 422 116 c 0
 418 112 417 109 417 105 c 2
 417 47 l 2
 417 10 418 -60 437 -97 c 0
 458 -137 477 -137 519 -137 c 0
 549 -137 586 -125 613 -104 c 1
 613 -193 l 1
 588 -201 563 -206 539 -206 c 0
 468 -206 386 -206 354 -136 c 0
 332 -89 330 0 330 47 c 2
EndSplineSet
Colour: ffff
EndChar

StartChar: reserved.150
Encoding: 1114129 -1 150
Width: 613
Flags: W
LayerCount: 2
Fore
SplineSet
39 -198 m 0
 40 -61 62 89 62 240 c 0
 62 542 l 0
 140 542 l 0
 140 220 l 0
 140 184 142 151 158 118 c 0
 180 75 217 51 255 51 c 0
 298 51 340 81 360 129 c 0
 373 160 376 190 376 227 c 0
 376 542 l 0
 452 542 l 0
 452 137 l 0
 452 119 452 97 462 80 c 0
 470 64 485 56 499 56 c 0
 540 56 564 114 564 114 c 0
 596 53 l 0
 573 18 536 -12 492 -12 c 0
 442 -12 400 29 394 80 c 0
 366 24 310 -13 249 -13 c 0
 192 -13 139 20 114 72 c 0
 114 -18 114 -109 113 -198 c 0
 39 -198 l 0
EndSplineSet
EndChar

StartChar: madda
Encoding: 1114130 -1 151
Width: 613
Flags: W
LayerCount: 2
Fore
SplineSet
39 -198 m 0
 40 -61 62 89 62 240 c 0
 62 542 l 0
 140 542 l 0
 140 220 l 0
 140 184 142 151 158 118 c 0
 180 75 217 51 255 51 c 0
 298 51 340 81 360 129 c 0
 373 160 376 190 376 227 c 0
 376 542 l 0
 452 542 l 0
 452 137 l 0
 452 119 452 97 462 80 c 0
 470 64 485 56 499 56 c 0
 540 56 564 114 564 114 c 0
 596 53 l 0
 573 18 536 -12 492 -12 c 0
 442 -12 400 29 394 80 c 0
 366 24 310 -13 249 -13 c 0
 192 -13 139 20 114 72 c 0
 114 -18 114 -109 113 -198 c 0
 39 -198 l 0
EndSplineSet
EndChar

StartChar: uniFBB2
Encoding: 64434 64434 154
Width: 613
Flags: W
LayerCount: 2
Fore
SplineSet
267 444 m 0
 267 469 287 489 312 489 c 0
 337 489 357 469 357 444 c 0
 357 419 337 399 312 399 c 0
 287 399 267 419 267 444 c 0
EndSplineSet
EndChar

StartChar: hamzaarabic
Encoding: 1569 1569 160
Width: 613
Flags: W
LayerCount: 2
Fore
SplineSet
214 53 m 1
 181 68 136 100 136 164 c 0
 136 263 245 324 342 324 c 0
 422 324 448 305 497 266 c 1
 449 205 l 1
 406 239 399 245 386 250 c 0
 377 253 366 256 342 256 c 0
 285 256 224 219 224 164 c 0
 224 131 242 120 258 113 c 0
 276 105 305 101 339 101 c 0
 371 101 424 110 499 126 c 1
 523 60 l 1
 359 19 226 -16 136 -44 c 1
 115 24 l 1
 136 30 187 46 214 53 c 1
EndSplineSet
Substitution2: "Isolated forms-1" uniFE80
Colour: ffff
EndChar

StartChar: tatweelarabic
Encoding: 1600 1600 199
Width: 613
Flags: W
LayerCount: 2
Fore
SplineSet
0 0 m 17
 0 69 l 9
 613 69 l 1
 613 0 l 1
 0 0 l 17
EndSplineSet
Colour: ffff
EndChar
